<svg xmlns="http://www.w3.org/2000/svg" width="58" height="46" fill="none"><g fill="#fff"><path d="m5.77 28.462.65 1.352zm0-10.923.65-1.353zm47.76 11.546.649-1.352zm0-12.17-.65-1.353zm-1.3.624.65 1.352zm0 10.923-.649 1.352zM4.47 16.915l-.649 1.352zm0 12.17-.649-1.352zm15.47.854a1.5 1.5 0 1 0 2.12 2.122zm17.206-12.963a1.5 1.5 0 1 0-2.122-2.121zm-22.96-13.81h29.629v-3h-29.63zm29.629 39.667h-29.63v3h29.63zm9.066-27.27-1.3.623 1.298 2.705 1.3-.624zm-1.3 14.25 1.3.625 1.298-2.705-1.3-.624zm-46.461.625 1.3-.624-1.299-2.705-1.3.624zm1.3-14.252-1.3-.624-1.299 2.705 1.3.624zm0 13.628c5.716-2.744 5.716-10.884 0-13.628L5.12 18.891c3.448 1.655 3.448 6.564 0 8.218zm46.46.624a2.27 2.27 0 0 1 1.287 2.044h3a5.27 5.27 0 0 0-2.988-4.749zm1.287-16.92c0 .872-.5 1.667-1.286 2.044l1.298 2.705a5.27 5.27 0 0 0 2.988-4.748zm-2.586 2.668c-5.717 2.744-5.717 10.884 0 13.628l1.298-2.705c-3.447-1.655-3.447-6.563 0-8.218zM14.185 42.833c-5.717 0-10.351-4.634-10.351-10.351h-3c0 7.374 5.977 13.351 13.351 13.351zM5.12 15.563a2.27 2.27 0 0 1-1.287-2.044h-3a5.27 5.27 0 0 0 2.988 4.748zm38.695 30.27c7.374 0 13.352-5.977 13.352-13.351h-3c0 5.717-4.635 10.351-10.352 10.351zM3.834 32.482c0-.872.5-1.667 1.286-2.044L3.82 27.733a5.27 5.27 0 0 0-2.988 4.749zM43.815 3.167c5.717 0 10.352 4.634 10.352 10.352h3c0-7.374-5.978-13.352-13.352-13.352zm-29.63-3C6.811.167.833 6.145.833 13.519h3c0-5.718 4.635-10.352 10.352-10.352zm7.876 31.894 15.085-15.085-2.122-2.121L19.94 29.938zM18.334 15a2.667 2.667 0 1 0 5.333 0 2.667 2.667 0 0 0-5.334 0M34.334 31a2.667 2.667 0 1 0 5.333 0 2.667 2.667 0 0 0-5.334 0"></path></g></svg>