<svg width="12" height="14" viewBox="0 0 12 14" fill="none" xmlns="http://www.w3.org/2000/svg">
<path d="M7.82674 5.00034L7.59608 11.0003M4.40408 11.0003L4.17341 5.00034M10.8187 2.86034C11.0463 2.895 11.2734 2.93189 11.5001 2.971M10.8187 2.86034L10.1067 12.1157C10.0777 12.4925 9.90745 12.8444 9.63009 13.1012C9.35273 13.3579 8.98868 13.5004 8.61074 13.5003H3.38941C3.01147 13.5004 2.64742 13.3579 2.37006 13.1012C2.0927 12.8444 1.92247 12.4925 1.89341 12.1157L1.18141 2.86034M10.8187 2.86034C10.0493 2.74395 9.27593 2.65567 8.50008 2.59567M1.18141 2.86034C0.953854 2.89456 0.726743 2.93122 0.500076 2.97034M1.18141 2.86034C1.95082 2.74395 2.72423 2.65567 3.50008 2.59567M8.50008 2.59567V1.985C8.50008 1.19834 7.89341 0.542335 7.10674 0.517669C6.36915 0.49411 5.631 0.49411 4.89341 0.517669C4.10674 0.542335 3.50008 1.199 3.50008 1.985V2.59567M8.50008 2.59567C6.83586 2.46793 5.1643 2.46793 3.50008 2.59567" stroke="#E24744" stroke-linecap="round" stroke-linejoin="round"/>
</svg>
