<svg xmlns="http://www.w3.org/2000/svg" width="42" height="48" fill="none"><path fill="#fff" d="m5.966 43.598.881-1.214zM3.569 41.2l1.214-.882zm34.862 0-1.213-.882zm-2.397 2.397-.881-1.214zm0-39.196.882-1.213zM38.431 6.8l-1.213.882zM5.966 4.402l.881 1.214zM3.569 6.8l1.214.882zm19.914 5.49.235 1.482zm-3.39 0-.234 1.482zm-7.76 23.21a1.5 1.5 0 0 0 0 3zm17.334 3a1.5 1.5 0 0 0 0-3zM12.333 26.834a1.5 1.5 0 1 0 0 3zm17.334 3a1.5 1.5 0 0 0 0-3zM12.333 18.167a1.5 1.5 0 0 0 0 3zm17.334 3a1.5 1.5 0 0 0 0-3zm9.333.666v4.334h3v-4.334zM3 26.167v-4.334H0v4.334zm18 18c-4.096 0-7.047-.003-9.334-.25-2.26-.245-3.693-.715-4.819-1.533l-1.763 2.427c1.722 1.251 3.744 1.816 6.259 2.088 2.486.27 5.628.268 9.657.268zm-21-18c0 4.028-.002 7.17.267 9.657.273 2.515.837 4.536 2.088 6.259l2.428-1.764c-.818-1.125-1.288-2.559-1.533-4.818-.248-2.288-.25-5.239-.25-9.334zm6.847 16.217a9.3 9.3 0 0 1-2.064-2.065l-2.428 1.764a12.3 12.3 0 0 0 2.729 2.728zM39 26.167c0 4.095-.002 7.046-.25 9.334-.245 2.26-.715 3.693-1.532 4.818l2.426 1.764c1.252-1.723 1.816-3.744 2.089-6.259.27-2.486.267-5.629.267-9.657zm-18 21c4.029 0 7.17.002 9.657-.268 2.515-.272 4.537-.837 6.259-2.088l-1.763-2.427c-1.126.818-2.56 1.288-4.819 1.533-2.287.247-5.238.25-9.334.25zm16.218-6.848a9.3 9.3 0 0 1-2.065 2.065l1.763 2.427a12.3 12.3 0 0 0 2.729-2.728zM42 21.833c0-4.028.002-7.17-.267-9.657-.273-2.515-.837-4.537-2.088-6.259l-2.428 1.764c.818 1.125 1.288 2.558 1.533 4.818.248 2.287.25 5.239.25 9.334zM35.153 5.616a9.3 9.3 0 0 1 2.065 2.065l2.426-1.764a12.3 12.3 0 0 0-2.728-2.728zM3 21.833c0-4.095.002-7.047.25-9.334.245-2.26.715-3.693 1.533-4.818L2.355 5.917C1.105 7.64.54 9.661.267 12.176-.003 14.662 0 17.805 0 21.833zM5.084 3.19a12.3 12.3 0 0 0-2.729 2.728l2.428 1.764a9.3 9.3 0 0 1 2.064-2.065zm18.165 7.62a9.3 9.3 0 0 1-2.92 0l-.47 2.962c1.278.203 2.58.203 3.859 0zm10.645-8.126c-2.685 2.684-4.65 4.618-6.348 5.956-1.676 1.32-2.974 1.96-4.297 2.17l.469 2.962c2.025-.32 3.796-1.288 5.684-2.775 1.867-1.47 3.964-3.544 6.613-6.19zM21 3.833c3.599 0 6.32.001 8.492.172 2.168.17 3.643.502 4.787 1.079l1.35-2.679c-1.654-.834-3.58-1.208-5.902-1.39C27.41.831 24.553.832 21 .832zm13.279 1.25q.464.234.874.533l1.763-2.427a9.3 9.3 0 0 0-1.286-.784zM7.096 4.34c2.798 2.798 4.987 4.984 6.915 6.527 1.95 1.56 3.765 2.575 5.848 2.905l.47-2.963c-1.362-.215-2.696-.886-4.443-2.284-1.77-1.416-3.826-3.464-6.669-6.306zM21 .833c-3.113 0-5.688 0-7.826.12-2.136.122-3.944.368-5.507.907l.979 2.836c1.176-.406 2.662-.632 4.698-.747 2.034-.115 4.512-.116 7.656-.116zM7.667 1.86A9.7 9.7 0 0 0 5.084 3.19l1.763 2.427a6.7 6.7 0 0 1 1.799-.92zm4.666 36.64h17.334v-3H12.333zm0-8.667h17.334v-3H12.333zm0-8.666h17.334v-3H12.333z"></path></svg>