<svg xmlns="http://www.w3.org/2000/svg" width="21" height="12"><path fill="currentColor" d="M1 5.25a.75.75 0 0 0 0 1.5zm11 1.5a.75.75 0 0 0 0-1.5zm0-3.615h-.75zm3.22-1.584.457-.595zm0 8.899.457.594zM12 8.865h.75zm6.941-1.28-.457-.594zm0-3.17-.457.595zM1 6.75h11v-1.5H1zm17.484.24-3.722 2.865.915 1.189L19.4 8.179zM12.75 8.866v-5.73h-1.5v5.73zm2.012-6.72 3.722 2.865.915-1.19L15.677.957zm-2.012.99c0-1.037 1.19-1.623 2.012-.99l.915-1.189C13.87-.436 11.25.853 11.25 3.136zm2.012 6.72c-.822.633-2.012.047-2.012-.99h-1.5c0 2.282 2.62 3.57 4.428 2.179zM19.4 8.18a2.75 2.75 0 0 0 0-4.358l-.915 1.189c.65.5.65 1.48 0 1.98z"></path></svg>