<svg width="12" height="12" viewBox="0 0 12 12" fill="none" xmlns="http://www.w3.org/2000/svg">
<path d="M4.18704 10.5133L4.00509 10.0476L4.18704 10.5133ZM1.48278 11.0326L1.23278 11.4656H1.23278L1.48278 11.0326ZM0.580364 8.43098L0.0860646 8.50627L0.580364 8.43098ZM0.907229 6.69614L1.34024 6.94614L0.907229 6.69614ZM0.517797 7.52098L0.0264418 7.4284H0.0264418L0.517797 7.52098ZM5.52603 9.3628L5.95904 9.6128L5.52603 9.3628ZM5.00641 10.1125L5.33226 10.4917H5.33227L5.00641 10.1125ZM3.43952 2.31008L3.00651 2.06008V2.06008L3.43952 2.31008ZM10.7729 11.834C11.049 11.834 11.2729 11.6102 11.2729 11.334C11.2729 11.0579 11.049 10.834 10.7729 10.834V11.334V11.834ZM6.77285 10.834C6.49671 10.834 6.27285 11.0579 6.27285 11.334C6.27285 11.6102 6.49671 11.834 6.77285 11.834V11.334V10.834ZM8.05832 4.97675L7.62531 4.72675L5.09302 9.1128L5.52603 9.3628L5.95904 9.6128L8.49134 5.22675L8.05832 4.97675ZM0.907229 6.69614L1.34024 6.94614L3.87253 2.56008L3.43952 2.31008L3.00651 2.06008L0.474217 6.44614L0.907229 6.69614ZM4.18704 10.5133L4.00509 10.0476C3.27411 10.3332 2.77627 10.5264 2.39195 10.6161C2.0207 10.7029 1.85224 10.6686 1.73278 10.5996L1.48278 11.0326L1.23278 11.4656C1.66829 11.7171 2.13553 11.703 2.61946 11.5899C3.09032 11.4799 3.66712 11.2532 4.369 10.979L4.18704 10.5133ZM0.580364 8.43098L0.0860646 8.50627C0.199524 9.25122 0.29162 9.86408 0.431778 10.3269C0.575826 10.8025 0.797263 11.2142 1.23278 11.4656L1.48278 11.0326L1.73278 10.5996C1.61331 10.5306 1.49936 10.4019 1.38885 10.037C1.27445 9.65928 1.19283 9.13154 1.07466 8.3557L0.580364 8.43098ZM0.907229 6.69614L0.474217 6.44614C0.259669 6.81774 0.0878925 7.10225 0.0264418 7.4284L0.517797 7.52098L1.00915 7.61356C1.03179 7.49342 1.0916 7.37679 1.34024 6.94614L0.907229 6.69614ZM0.580364 8.43098L1.07466 8.3557C0.999791 7.86409 0.986516 7.7337 1.00915 7.61356L0.517797 7.52098L0.0264418 7.4284C-0.0350089 7.75455 0.021457 8.08207 0.0860646 8.50627L0.580364 8.43098ZM5.52603 9.3628L5.09302 9.1128C4.84438 9.54346 4.77329 9.65357 4.68056 9.73325L5.00641 10.1125L5.33227 10.4917C5.584 10.2754 5.7445 9.98441 5.95904 9.6128L5.52603 9.3628ZM4.18704 10.5133L4.369 10.979C4.76867 10.8229 5.08053 10.708 5.33226 10.4917L5.00641 10.1125L4.68056 9.73325C4.58784 9.81292 4.46827 9.86662 4.00509 10.0476L4.18704 10.5133ZM7.08226 1.33401L6.83226 1.76702C7.38883 2.08836 7.76217 2.30513 8.0194 2.50364C8.26514 2.69328 8.34343 2.82102 8.37523 2.9397L8.85819 2.81029L9.34115 2.68088C9.23001 2.26609 8.96466 1.96996 8.63034 1.71196C8.3075 1.46283 7.86435 1.2082 7.33226 0.900999L7.08226 1.33401ZM8.05832 4.97675L8.49134 5.22675C8.79854 4.69466 9.05501 4.25256 9.21003 3.87539C9.37056 3.4848 9.4523 3.09567 9.34115 2.68088L8.85819 2.81029L8.37523 2.9397C8.40703 3.05837 8.4031 3.20814 8.2851 3.49525C8.16158 3.79577 7.94665 4.17017 7.62531 4.72675L8.05832 4.97675ZM7.08226 1.33401L7.33226 0.900999C6.80017 0.593797 6.35807 0.337326 5.9809 0.18231C5.59031 0.0217761 5.20118 -0.0599604 4.78639 0.051182L4.9158 0.534145L5.04521 1.01711C5.16388 0.985308 5.31365 0.989236 5.60076 1.10724C5.90128 1.23075 6.27568 1.44569 6.83226 1.76702L7.08226 1.33401ZM3.43952 2.31008L3.87253 2.56008C4.19387 2.00351 4.41064 1.63017 4.60915 1.37294C4.79879 1.12719 4.92653 1.04891 5.04521 1.01711L4.9158 0.534145L4.78639 0.051182C4.3716 0.162324 4.07547 0.427676 3.81747 0.761999C3.56834 1.08483 3.31371 1.52799 3.00651 2.06008L3.43952 2.31008ZM8.05832 4.97675L8.30832 4.54373L3.68952 1.87707L3.43952 2.31008L3.18952 2.74309L7.80832 5.40976L8.05832 4.97675ZM10.7729 11.334V10.834H6.77285V11.334V11.834H10.7729V11.334Z" fill="black"/>
</svg>
