<svg xmlns="http://www.w3.org/2000/svg" width="16" height="16" aria-hidden="true"><path fill="currentColor" d="M10.167 6c0 1.197-.97 2.167-2.167 2.167v1A3.167 3.167 0 0 0 11.167 6zM8 8.167A2.167 2.167 0 0 1 5.834 6h-1A3.167 3.167 0 0 0 8 9.167zM5.834 6c0-1.196.97-2.166 2.166-2.166v-1A3.167 3.167 0 0 0 4.834 6zM8 3.834c1.197 0 2.167.97 2.167 2.166h1A3.167 3.167 0 0 0 8 2.834zm-2 7.333h4v-1H6zM1.834 8A6.167 6.167 0 0 1 8 1.834v-1A7.167 7.167 0 0 0 .833 8zM8 1.834A6.167 6.167 0 0 1 14.167 8h1A7.167 7.167 0 0 0 8 .833zM14.167 8a6.15 6.15 0 0 1-1.898 4.45l.693.722A7.15 7.15 0 0 0 15.167 8zm-1.898 4.45A6.14 6.14 0 0 1 8 14.167v1c1.926 0 3.675-.76 4.962-1.995zM10 11.167c1.05 0 1.928.748 2.125 1.741l.981-.195A3.17 3.17 0 0 0 10 10.167zm-2 3a6.14 6.14 0 0 1-4.27-1.717l-.691.722A7.14 7.14 0 0 0 8 15.167zM3.73 12.45A6.15 6.15 0 0 1 1.835 8h-1c0 2.033.846 3.868 2.205 5.172zM6 10.167a3.17 3.17 0 0 0-3.106 2.546l.981.195A2.17 2.17 0 0 1 6 11.167z"></path></svg>