<svg xmlns="http://www.w3.org/2000/svg" width="42" height="48" fill="none"><path fill="#fff" d="m8.986 45.136.463-1.426zM2.03 38.181l1.427-.464zm37.94 0-1.427-.464zm-6.956 6.955-.463-1.426zm0-29.272-.463 1.426zm6.956 6.955-1.427.463zM8.986 15.864l.463 1.426zM2.03 22.819l1.427.463zm20.47 3.348a1.5 1.5 0 0 0-3 0zm-3 8.666a1.5 1.5 0 1 0 3 0zm-2.833-18h8.666v-3h-8.666zm8.666 27.334h-8.666v3h8.666zm-8.666 0c-4.15 0-5.869-.019-7.218-.457l-.927 2.853c1.915.622 4.229.604 8.145.604zM0 30.5c0 3.916-.019 6.23.604 8.145l2.853-.928C3.019 36.368 3 34.65 3 30.5zm9.45 13.21a9.33 9.33 0 0 1-5.993-5.993l-2.853.928a12.33 12.33 0 0 0 7.918 7.918zM39 30.5c0 4.15-.019 5.868-.457 7.217l2.853.928c.623-1.915.604-4.23.604-8.145zM25.333 47.167c3.916 0 6.23.018 8.145-.604l-.927-2.853c-1.35.438-3.068.457-7.218.457zm13.21-9.45a9.33 9.33 0 0 1-5.992 5.993l.927 2.853a12.33 12.33 0 0 0 7.918-7.919zM42 30.5c0-3.916.019-6.23-.604-8.145l-2.853.927c.438 1.35.457 3.068.457 7.218zm-9.45-13.21a9.33 9.33 0 0 1 5.993 5.992l2.853-.927a12.33 12.33 0 0 0-7.918-7.918zM3 30.5c0-4.15.019-5.869.457-7.218l-2.853-.927C-.02 24.27 0 26.584 0 30.5zm5.522-16.063a12.33 12.33 0 0 0-7.918 7.918l2.853.927a9.33 9.33 0 0 1 5.992-5.992zm21.811-1.27v2.166h3v-2.166zm-18.666 2.166v-2.166h-3v2.166zM21 3.833a9.333 9.333 0 0 1 9.333 9.334h3C33.333 6.355 27.812.833 21 .833zm0-3c-6.812 0-12.333 5.522-12.333 12.334h3A9.333 9.333 0 0 1 21 3.833zm-1.5 25.334v8.666h3v-8.666zm-2.833-12.334c-3.064 0-5.132-.005-6.75.268l.499 2.958c1.308-.22 3.067-.226 6.25-.226zm-6.75.268a10 10 0 0 0-1.395.336l.927 2.853c.289-.094.604-.17.967-.231zm-1.25 1.232v.247h3v-.247zm16.666 1.5c3.184 0 4.943.006 6.251.226l.499-2.959c-1.618-.272-3.686-.267-6.75-.267zm6.251.226c.363.061.678.137.967.231l.927-2.853a10 10 0 0 0-1.395-.336zm-1.25-1.726v.247h3v-.247z"></path></svg>