<svg width="20" height="20" viewBox="0 0 20 20" fill="none" xmlns="http://www.w3.org/2000/svg">
<path d="M18.3333 5.83333C18.7754 5.83333 19.1993 5.65774 19.5118 5.34518C19.8244 5.03262 20 4.60869 20 4.16667V0.833333C20 0.61232 19.9122 0.400358 19.7559 0.244078C19.5996 0.0877974 19.3877 0 19.1667 0C18.9457 0 18.7337 0.0877974 18.5774 0.244078C18.4211 0.400358 18.3333 0.61232 18.3333 0.833333V4.16667H15C14.985 4.16667 14.9733 4.17417 14.9583 4.175C14.5598 3.1875 13.8752 2.34165 12.9924 1.74601C12.1097 1.15038 11.0691 0.832135 10.0042 0.832135C8.93926 0.832135 7.89866 1.15038 7.01592 1.74601C6.13318 2.34165 5.44858 3.1875 5.05 4.175C5.0325 4.17583 5.0175 4.16667 5 4.16667H1.66667V0.833333C1.66667 0.61232 1.57887 0.400358 1.42259 0.244078C1.26631 0.0877974 1.05435 0 0.833333 0C0.61232 0 0.400358 0.0877974 0.244078 0.244078C0.0877974 0.400358 0 0.61232 0 0.833333L0 4.16667C0 4.60869 0.175595 5.03262 0.488155 5.34518C0.800716 5.65774 1.22464 5.83333 1.66667 5.83333H4.57083L3.72667 9.16667H0.833333C0.61232 9.16667 0.400358 9.25446 0.244078 9.41074C0.0877974 9.56702 0 9.77899 0 10C0 10.221 0.0877974 10.433 0.244078 10.5893C0.400358 10.7455 0.61232 10.8333 0.833333 10.8333H3.30417L3.18333 11.3108L3.16667 11.4167C3.12951 11.7019 3.11003 11.9891 3.10833 12.2767C3.10918 12.9162 3.19978 13.5524 3.3775 14.1667H1.66667C1.22464 14.1667 0.800716 14.3423 0.488155 14.6548C0.175595 14.9674 0 15.3913 0 15.8333L0 19.1667C0 19.3877 0.0877974 19.5996 0.244078 19.7559C0.400358 19.9122 0.61232 20 0.833333 20C1.05435 20 1.26631 19.9122 1.42259 19.7559C1.57887 19.5996 1.66667 19.3877 1.66667 19.1667V15.8333H4.10833C4.71926 16.8501 5.58293 17.6915 6.61535 18.2756C7.64777 18.8598 8.81379 19.1668 10 19.1668C11.1862 19.1668 12.3522 18.8598 13.3847 18.2756C14.4171 17.6915 15.2807 16.8501 15.8917 15.8333H18.3333V19.1667C18.3333 19.3877 18.4211 19.5996 18.5774 19.7559C18.7337 19.9122 18.9457 20 19.1667 20C19.3877 20 19.5996 19.9122 19.7559 19.7559C19.9122 19.5996 20 19.3877 20 19.1667V15.8333C20 15.3913 19.8244 14.9674 19.5118 14.6548C19.1993 14.3423 18.7754 14.1667 18.3333 14.1667H16.6225C16.8012 13.5511 16.8923 12.9135 16.8933 12.2725C16.8909 11.9863 16.8709 11.7004 16.8333 11.4167L16.6875 10.8333H19.1667C19.3877 10.8333 19.5996 10.7455 19.7559 10.5893C19.9122 10.433 20 10.221 20 10C20 9.77899 19.9122 9.56702 19.7559 9.41074C19.5996 9.25446 19.3877 9.16667 19.1667 9.16667H16.2683L15.4275 5.83333H18.3333ZM10 17.5C8.61413 17.4985 7.28548 16.9472 6.3056 15.9671C5.32572 14.9871 4.77466 13.6584 4.77333 12.2725C4.77448 12.07 4.78756 11.8677 4.8125 11.6667L6.50417 4.975C6.75805 4.25425 7.22849 3.62958 7.85108 3.18651C8.47367 2.74344 9.21799 2.50361 9.98213 2.49987C10.7463 2.49613 11.4929 2.72866 12.1198 3.16561C12.7467 3.60257 13.2232 4.2226 13.4842 4.94083L15.1875 11.6667C15.2124 11.8671 15.2255 12.0689 15.2267 12.2708C15.2258 13.657 14.6749 14.9862 13.695 15.9666C12.7151 16.947 11.3862 17.4985 10 17.5V17.5Z" fill="#1D1D1F"/>
</svg>
