<svg width="15" height="20" viewBox="0 0 15 20" fill="none" xmlns="http://www.w3.org/2000/svg">
<path d="M6.32502 4.90263L5.60957 4.67759V4.67759L6.32502 4.90263ZM4.55869 7.86688L5.00888 7.26702L4.55869 7.86688ZM4.97566 9.19253L5.6911 9.41756L4.97566 9.19253ZM6.74199 10.5182L6.29179 9.91832V9.91832L6.74199 10.5182ZM8.09134 10.5182L8.54154 9.91832L8.09134 10.5182ZM9.85767 9.19253L9.14223 9.41756V9.41756L9.85767 9.19253ZM10.2746 7.86688L9.82445 7.26702L10.2746 7.86688ZM8.50832 4.90263L9.22376 4.67759V4.67759L8.50832 4.90263ZM10.0584 17.9536L9.5782 18.5298H9.5782L10.0584 17.9536ZM9.27607 17.3016L9.75627 16.7255V16.7255L9.27607 17.3016ZM5.55726 17.3016L5.07706 16.7255H5.07706L5.55726 17.3016ZM4.77494 17.9536L5.25514 18.5298H5.25514L4.77494 17.9536ZM12.4164 11.8438L11.6665 11.8311L11.6664 11.8382L11.6664 11.8454L12.4164 11.8438ZM12.4167 11.8264L11.8544 11.3301V11.3301L12.4167 11.8264ZM2.417 11.8268L2.97927 11.3304V11.3304L2.417 11.8268ZM5.23336 5.72193V6.47193C6.07146 6.47193 6.79257 5.91576 7.04046 5.12767L6.32502 4.90263L5.60957 4.67759C5.55013 4.86657 5.38981 4.97193 5.23336 4.97193V5.72193ZM4.55869 7.86688L5.00888 7.26702C4.8475 7.1459 4.79703 6.9574 4.85715 6.76626C4.91674 6.57683 5.05449 6.47193 5.23336 6.47193V5.72193V4.97193C3.34669 4.97193 2.67608 7.39169 4.10849 8.46673L4.55869 7.86688ZM4.97566 9.19253L5.6911 9.41756C5.93785 8.63311 5.67177 7.76452 5.00888 7.26702L4.55869 7.86688L4.10849 8.46673C4.25021 8.57309 4.3208 8.77487 4.26022 8.96749L4.97566 9.19253ZM6.74199 10.5182L6.29179 9.91832C6.13917 10.0329 5.97987 10.0212 5.84283 9.91832C5.70228 9.81284 5.62302 9.63401 5.6911 9.41756L4.97566 9.19253L4.26022 8.96749C3.98469 9.84344 4.33881 10.665 4.94244 11.118C5.54957 11.5737 6.44524 11.6786 7.19218 11.118L6.74199 10.5182ZM8.09134 10.5182L8.54154 9.91832C7.87249 9.4162 6.96084 9.41619 6.29179 9.91832L6.74199 10.5182L7.19218 11.118C7.32774 11.0163 7.50559 11.0163 7.64115 11.118L8.09134 10.5182ZM9.85767 9.19253L9.14223 9.41756C9.21031 9.63401 9.13105 9.81284 8.9905 9.91832C8.85347 10.0212 8.69417 10.0329 8.54154 9.91832L8.09134 10.5182L7.64115 11.118C8.38809 11.6786 9.28376 11.5737 9.8909 11.118C10.4945 10.665 10.8486 9.84344 10.5731 8.96749L9.85767 9.19253ZM10.2746 7.86688L9.82445 7.26702C9.16157 7.76452 8.89549 8.63311 9.14223 9.41756L9.85767 9.19253L10.5731 8.96749C10.5125 8.77487 10.5831 8.57309 10.7248 8.46673L10.2746 7.86688ZM9.59997 5.72193V6.47193C9.77884 6.47193 9.91659 6.57683 9.97618 6.76626C10.0363 6.9574 9.98583 7.1459 9.82445 7.26702L10.2746 7.86688L10.7248 8.46673C12.1573 7.39169 11.4866 4.97193 9.59997 4.97193V5.72193ZM8.50832 4.90263L7.79287 5.12767C8.04076 5.91576 8.76188 6.47193 9.59997 6.47193V5.72193V4.97193C9.44352 4.97193 9.2832 4.86657 9.22376 4.67759L8.50832 4.90263ZM8.50832 4.90263L9.22376 4.67759C8.65999 2.88525 6.17334 2.88525 5.60957 4.67759L6.32502 4.90263L7.04046 5.12767C7.1639 4.73522 7.66943 4.73522 7.79287 5.12767L8.50832 4.90263ZM0.75 7.41667H1.5C1.5 4.14898 4.14898 1.5 7.41667 1.5V0.75V0C3.32055 0 0 3.32055 0 7.41667H0.75ZM7.41667 0.75V1.5C10.6844 1.5 13.3333 4.14898 13.3333 7.41667H14.0833H14.8333C14.8333 3.32055 11.5128 0 7.41667 0V0.75ZM12.4167 12.2788H11.6667V16.8989H12.4167H13.1667V12.2788H12.4167ZM2.41667 16.8989H3.16667V12.2788H2.41667H1.66667V16.8989H2.41667ZM10.0584 17.9536L10.5386 17.3775L9.75627 16.7255L9.27607 17.3016L8.79587 17.8777L9.5782 18.5298L10.0584 17.9536ZM5.55726 17.3016L5.07706 16.7255L4.29474 17.3775L4.77494 17.9536L5.25514 18.5298L6.03746 17.8777L5.55726 17.3016ZM9.27607 17.3016L9.75627 16.7255C9.32733 16.3679 8.95337 16.0545 8.61711 15.8385C8.26283 15.611 7.87797 15.4422 7.41667 15.4422V16.1922V16.9422C7.48382 16.9422 7.58502 16.9584 7.80651 17.1006C8.04601 17.2544 8.33752 17.4957 8.79587 17.8777L9.27607 17.3016ZM5.55726 17.3016L6.03746 17.8777C6.49581 17.4957 6.78732 17.2544 7.02682 17.1006C7.24831 16.9584 7.34951 16.9422 7.41667 16.9422V16.1922V15.4422C6.95536 15.4422 6.5705 15.611 6.21623 15.8385C5.87997 16.0545 5.50601 16.3679 5.07706 16.7255L5.55726 17.3016ZM2.41667 16.8989H1.66667C1.66667 17.5245 1.66463 18.0813 1.72682 18.499C1.78768 18.9078 1.9495 19.4668 2.52627 19.7248L2.83248 19.0401L3.13869 18.3555C3.29965 18.4275 3.25356 18.5676 3.21047 18.2782C3.1687 17.9976 3.16667 17.5768 3.16667 16.8989H2.41667ZM4.77494 17.9536L4.29474 17.3775C3.76659 17.8178 3.43401 18.0925 3.18451 18.2463C2.92404 18.4068 2.98716 18.2877 3.13869 18.3555L2.83248 19.0401L2.52627 19.7248C3.09362 19.9785 3.61909 19.7404 3.97146 19.5232C4.33479 19.2993 4.76553 18.9379 5.25514 18.5298L4.77494 17.9536ZM12.4167 16.8989H11.6667C11.6667 17.5768 11.6646 17.9976 11.6229 18.2782C11.5798 18.5676 11.5337 18.4275 11.6946 18.3555L12.0008 19.0401L12.3071 19.7248C12.8838 19.4668 13.0456 18.9078 13.1065 18.499C13.1687 18.0813 13.1667 17.5245 13.1667 16.8989H12.4167ZM10.0584 17.9536L9.5782 18.5298C10.0678 18.9379 10.4985 19.2993 10.8619 19.5232C11.2142 19.7404 11.7397 19.9785 12.3071 19.7248L12.0008 19.0401L11.6946 18.3555C11.8462 18.2877 11.9093 18.4068 11.6488 18.2463C11.3993 18.0925 11.0667 17.8178 10.5386 17.3775L10.0584 17.9536ZM12.4167 12.2788H13.1667C13.1667 12.1251 13.1667 11.9796 13.1664 11.8422L12.4164 11.8438L11.6664 11.8454C11.6667 11.9809 11.6667 12.1247 11.6667 12.2788H12.4167ZM14.0833 7.41667H13.3333C13.3333 8.91772 12.7753 10.2866 11.8544 11.3301L12.4167 11.8264L12.979 12.3227C14.1325 11.0157 14.8333 9.29711 14.8333 7.41667H14.0833ZM12.4167 11.8264L11.8544 11.3301C10.7691 12.5596 9.18371 13.3333 7.41667 13.3333V14.0833V14.8333C9.63193 14.8333 11.6211 13.8612 12.979 12.3227L12.4167 11.8264ZM12.4164 11.8438L13.1663 11.8565L13.1666 11.8391L12.4167 11.8264L11.6668 11.8137L11.6665 11.8311L12.4164 11.8438ZM2.41667 12.2788H3.16667C3.16667 12.1183 3.16667 11.9689 3.167 11.8285L2.417 11.8268L1.667 11.825C1.66667 11.9674 1.66667 12.1187 1.66667 12.2788H2.41667ZM7.41667 14.0833V13.3333C5.64978 13.3333 4.0645 12.5598 2.97927 11.3304L2.417 11.8268L1.85473 12.3231C3.21263 13.8613 5.2016 14.8333 7.41667 14.8333V14.0833ZM2.417 11.8268L2.97927 11.3304C2.05811 10.2869 1.5 8.91788 1.5 7.41667H0.75H0C0 9.29731 0.700948 11.0161 1.85473 12.3231L2.417 11.8268Z" fill="#1D1D1F"/>
</svg>
