<svg xmlns="http://www.w3.org/2000/svg" width="14" height="14"><path fill="currentColor" d="m3.812 12.959-.078.494zm-2.771-2.77.494-.08zm11.918 0 .494.077zm-2.77 2.77.077.494zm2.544-6.926a.5.5 0 0 0-.8.6zm-10.667.6a.5.5 0 0 0-.8-.6zm4.434 3.7a.5.5 0 1 0 1 0zM3.942 3.356a.5.5 0 1 0 .783.621zm1.323-.865-.392-.31zm3.47 0 .392-.31zm.54 1.486a.5.5 0 0 0 .784-.621zM6.833 1.013 6.754.52zm.334 0L7.246.52zm5.333 7.32V9h1v-.667zM9 12.5H5v1h4zM1.5 9v-.667h-1V9zM5 12.5c-.638 0-.9-.002-1.11-.035l-.156.988c.307.049.666.047 1.266.047zM.5 9c0 .6-.002.959.047 1.266l.988-.156C1.502 9.9 1.5 9.638 1.5 9zm3.39 3.465a2.83 2.83 0 0 1-2.355-2.355l-.988.156a3.83 3.83 0 0 0 3.187 3.187zM12.5 9c0 .638-.002.9-.035 1.11l.988.156C13.502 9.96 13.5 9.6 13.5 9zM9 13.5c.6 0 .959.002 1.266-.047l-.156-.988c-.21.033-.472.035-1.11.035zm3.465-3.39a2.83 2.83 0 0 1-2.355 2.355l.156.988a3.83 3.83 0 0 0 3.187-3.187zM13.5 8.333c0-.862-.285-1.66-.767-2.3l-.8.6c.356.474.567 1.062.567 1.7zm-12 0c0-.638.21-1.226.566-1.7l-.8-.6a3.82 3.82 0 0 0-.766 2.3zm6 2V1.667h-1v8.666zM4.725 3.977l.932-1.175-.784-.621-.931 1.175zm3.618-1.175.932 1.175.784-.621-.932-1.175zm-2.686 0c.38-.478.638-.803.855-1.021.216-.216.329-.263.4-.274L6.754.519c-.382.061-.68.286-.95.556-.268.268-.567.647-.93 1.106zm3.47-.621c-.364-.46-.664-.838-.93-1.106-.27-.27-.57-.495-.951-.556l-.158.988c.071.011.184.058.4.274.217.218.476.543.855 1.021zm-2.215-.674A1 1 0 0 1 7 1.5v-1q-.123 0-.246.02zM7 1.5q.045 0 .088.007l.158-.988A1.6 1.6 0 0 0 7 .5zm.5.167V1h-1v.667z"></path></svg>