<svg width="20" height="19" viewBox="0 0 20 19" fill="none" xmlns="http://www.w3.org/2000/svg">
<path d="M11.1996 5.65503C11.4685 6.4489 12.2398 6.98638 13.11 6.98638M3.78113 4.92892C5.09116 4.92892 6.2522 4.08538 6.65703 2.83946C7.56224 0.0535125 11.5036 0.0535125 12.4088 2.83946C12.8136 4.08538 13.9747 4.92892 15.2847 4.92892C18.214 4.92892 19.432 8.67739 17.0621 10.3992C16.0023 11.1692 15.5588 12.5341 15.9636 13.78C16.8688 16.566 13.6802 18.8827 11.3103 17.1608C10.2505 16.3908 8.81536 16.3908 7.75552 17.1608C5.38565 18.8827 2.19701 16.566 3.10222 13.78C3.50704 12.5341 3.06356 11.1692 2.00373 10.3992C-0.366144 8.67739 0.851808 4.92892 3.78113 4.92892Z" stroke="black" stroke-width="1.5" stroke-linecap="round"/>
</svg>
