<svg width="20" height="20" viewBox="0 0 20 20" fill="none" xmlns="http://www.w3.org/2000/svg">
<path d="M8.64742 4.90263L7.93198 4.67759L8.64742 4.90263ZM6.88109 7.86687L7.33129 7.26702L6.88109 7.86687ZM7.29807 9.19252L8.01351 9.41756L7.29807 9.19252ZM9.0644 10.5182L8.6142 9.91832V9.91832L9.0644 10.5182ZM10.4138 10.5182L10.8639 9.91832L10.4138 10.5182ZM12.1801 9.19252L11.4646 9.41756V9.41756L12.1801 9.19252ZM12.5971 7.86687L12.1469 7.26702L12.5971 7.86687ZM10.8307 4.90263L11.5462 4.67759L10.8307 4.90263ZM7.96647 14.7758L7.31695 14.4008H7.31695L7.96647 14.7758ZM6.50267 17.3112L7.15219 17.6862H7.15219L6.50267 17.3112ZM1.26442 14.2869L0.614905 13.9119L1.26442 14.2869ZM2.72822 11.7515L3.37774 12.1265V12.1265L2.72822 11.7515ZM4.93317 17.1768L4.22349 17.4194H4.22349L4.93317 17.1768ZM4.72997 16.5824L5.43965 16.3398L5.43965 16.3398L4.72997 16.5824ZM2.78197 15.4577L2.63722 14.7218H2.63722L2.78197 15.4577ZM2.16557 15.5789L2.31031 16.3148H2.31031L2.16557 15.5789ZM4.10745 15.4112L4.48245 14.7617H4.48245L4.10745 15.4112ZM0.803827 15.5877L0.188672 16.0167L0.803827 15.5877ZM8.38914 14.0266L7.78996 13.5755L7.75396 13.6233L7.726 13.6763L8.38914 14.0266ZM11.2797 14.7758L11.9293 14.4008V14.4008L11.2797 14.7758ZM12.7435 17.3112L13.3931 16.9362V16.9362L12.7435 17.3112ZM17.9818 14.2869L18.6313 13.9119V13.9119L17.9818 14.2869ZM16.518 11.7515L15.8685 12.1265V12.1265L16.518 11.7515ZM14.313 17.1768L15.0227 17.4194V17.4194L14.313 17.1768ZM14.5162 16.5824L13.8066 16.3398V16.3398L14.5162 16.5824ZM16.4643 15.4577L16.609 14.7218H16.609L16.4643 15.4577ZM17.0806 15.5789L16.9359 16.3148H16.9359L17.0806 15.5789ZM18.4424 15.5877L19.0575 16.0167V16.0167L18.4424 15.5877ZM10.8535 14.0197H10.1035V14.2053L10.1899 14.3694L10.8535 14.0197ZM8.44145 13.9571L8.58661 13.2213L8.44145 13.9571ZM10.8535 13.9906L10.729 13.251L10.8535 13.9906ZM15.6662 10.4716L14.9998 10.1274V10.1274L15.6662 10.4716ZM3.07241 7.41667H3.82241C3.82241 4.14898 6.47139 1.5 9.73907 1.5V0.75V0C5.64296 0 2.32241 3.32055 2.32241 7.41667H3.07241ZM9.73907 0.75V1.5C13.0068 1.5 15.6557 4.14898 15.6557 7.41667H16.4057H17.1557C17.1557 3.32055 13.8352 0 9.73907 0V0.75ZM7.55577 5.72193V6.47193C8.39387 6.47193 9.11498 5.91576 9.36287 5.12767L8.64742 4.90263L7.93198 4.67759C7.87254 4.86657 7.71222 4.97193 7.55577 4.97193V5.72193ZM6.88109 7.86687L7.33129 7.26702C7.16991 7.1459 7.11944 6.9574 7.17956 6.76626C7.23915 6.57683 7.3769 6.47193 7.55577 6.47193V5.72193V4.97193C5.6691 4.97193 4.99849 7.39169 6.4309 8.46673L6.88109 7.86687ZM7.29807 9.19252L8.01351 9.41756C8.26025 8.63311 7.99417 7.76452 7.33129 7.26702L6.88109 7.86687L6.4309 8.46673C6.57262 8.57309 6.64321 8.77487 6.58263 8.96749L7.29807 9.19252ZM9.0644 10.5182L8.6142 9.91832C8.46157 10.0329 8.30228 10.0212 8.16524 9.91832C8.02469 9.81284 7.94543 9.63401 8.01351 9.41756L7.29807 9.19252L6.58263 8.96749C6.3071 9.84344 6.66122 10.665 7.26485 11.118C7.87198 11.5737 8.76765 11.6786 9.51459 11.118L9.0644 10.5182ZM10.4138 10.5182L10.8639 9.91832C10.1949 9.4162 9.28325 9.41619 8.6142 9.91832L9.0644 10.5182L9.51459 11.118C9.65015 11.0163 9.828 11.0163 9.96356 11.118L10.4138 10.5182ZM12.1801 9.19252L11.4646 9.41756C11.5327 9.63401 11.4535 9.81284 11.3129 9.91832C11.1759 10.0212 11.0166 10.0329 10.8639 9.91832L10.4138 10.5182L9.96356 11.118C10.7105 11.6786 11.6062 11.5737 12.2133 11.118C12.8169 10.665 13.171 9.84344 12.8955 8.96749L12.1801 9.19252ZM12.5971 7.86687L12.1469 7.26702C11.484 7.76452 11.2179 8.63311 11.4646 9.41756L12.1801 9.19252L12.8955 8.96749C12.8349 8.77487 12.9055 8.57309 13.0473 8.46673L12.5971 7.86687ZM11.9224 5.72193V6.47193C12.1012 6.47193 12.239 6.57683 12.2986 6.76626C12.3587 6.9574 12.3082 7.1459 12.1469 7.26702L12.5971 7.86687L13.0473 8.46673C14.4797 7.39169 13.8091 4.97193 11.9224 4.97193V5.72193ZM10.8307 4.90263L10.1153 5.12767C10.3632 5.91576 11.0843 6.47193 11.9224 6.47193V5.72193V4.97193C11.7659 4.97193 11.6056 4.86657 11.5462 4.67759L10.8307 4.90263ZM10.8307 4.90263L11.5462 4.67759C10.9824 2.88525 8.49575 2.88525 7.93198 4.67759L8.64742 4.90263L9.36287 5.12767C9.48631 4.73522 9.99184 4.73522 10.1153 5.12767L10.8307 4.90263ZM7.96647 14.7758L7.31695 14.4008L5.85315 16.9362L6.50267 17.3112L7.15219 17.6862L8.61599 15.1508L7.96647 14.7758ZM1.26442 14.2869L1.91394 14.6619L3.37774 12.1265L2.72822 11.7515L2.0787 11.3765L0.614905 13.9119L1.26442 14.2869ZM4.93317 17.1768L5.64285 16.9342L5.43965 16.3398L4.72997 16.5824L4.02029 16.825L4.22349 17.4194L4.93317 17.1768ZM2.78197 15.4577L2.63722 14.7218L2.02083 14.843L2.16557 15.5789L2.31031 16.3148L2.92671 16.1936L2.78197 15.4577ZM4.72997 16.5824L5.43965 16.3398C5.33075 16.0212 5.22764 15.7152 5.10981 15.4743C4.98286 15.2148 4.79972 14.9449 4.48245 14.7617L4.10745 15.4112L3.73245 16.0608C3.69199 16.0374 3.70488 16.0159 3.76238 16.1335C3.82898 16.2696 3.89873 16.4693 4.02029 16.825L4.72997 16.5824ZM2.78197 15.4577L2.92671 16.1936C3.29546 16.121 3.50329 16.0816 3.65452 16.0712C3.78506 16.0622 3.7729 16.0841 3.73245 16.0608L4.10745 15.4112L4.48245 14.7617C4.16517 14.5785 3.83982 14.5549 3.55161 14.5747C3.28407 14.5931 2.96758 14.6568 2.63722 14.7218L2.78197 15.4577ZM1.26442 14.2869L0.614905 13.9119C0.420902 14.2479 0.231953 14.5715 0.123849 14.8402C0.0227931 15.0915 -0.1231 15.5697 0.188672 16.0167L0.803827 15.5877L1.41898 15.1586C1.4868 15.2559 1.50279 15.3592 1.49992 15.4228C1.49794 15.4665 1.48825 15.4677 1.51549 15.4C1.54097 15.3366 1.58429 15.2476 1.6546 15.1185C1.72412 14.9908 1.80926 14.8432 1.91394 14.6619L1.26442 14.2869ZM2.16557 15.5789L2.02083 14.843C1.81748 14.883 1.65239 14.9154 1.511 14.9395C1.36792 14.9638 1.27201 14.9755 1.20633 14.9788C1.13577 14.9823 1.14417 14.9733 1.19036 14.9874C1.2569 15.0078 1.35069 15.0607 1.41898 15.1586L0.803827 15.5877L0.188672 16.0167C0.504595 16.4697 1.00923 16.4905 1.28081 16.477C1.5689 16.4626 1.93455 16.3887 2.31031 16.3148L2.16557 15.5789ZM6.50267 17.3112L5.85315 16.9362C5.74847 17.1175 5.66324 17.265 5.58741 17.3891C5.51072 17.5145 5.45528 17.5966 5.41317 17.6503C5.36813 17.7078 5.36432 17.6988 5.40122 17.6752C5.45485 17.6409 5.55232 17.6031 5.67044 17.6132L5.60645 18.3605L5.54246 19.1077C6.08546 19.1542 6.42671 18.7888 6.59376 18.5756C6.77246 18.3476 6.95819 18.0222 7.15219 17.6862L6.50267 17.3112ZM4.93317 17.1768L4.22349 17.4194C4.34737 17.7818 4.46619 18.1354 4.59783 18.392C4.72193 18.634 4.99222 19.0606 5.54246 19.1077L5.60645 18.3605L5.67044 17.6132C5.78938 17.6234 5.8821 17.6782 5.933 17.7256C5.96834 17.7585 5.96474 17.7703 5.93251 17.7075C5.90249 17.6489 5.86466 17.56 5.81421 17.424C5.76436 17.2895 5.70989 17.1303 5.64285 16.9342L4.93317 17.1768ZM2.72822 11.7515L3.37774 12.1265C3.73677 11.5047 3.89297 11.2414 4.03723 11.0771L3.47363 10.5823L2.91002 10.0875C2.64329 10.3913 2.40141 10.8176 2.0787 11.3765L2.72822 11.7515ZM7.96647 14.7758L8.61599 15.1508C8.7906 14.8484 8.93766 14.5939 9.05228 14.377L8.38914 14.0266L7.726 13.6763C7.62751 13.8627 7.4968 14.0893 7.31695 14.4008L7.96647 14.7758ZM11.2797 14.7758L10.6302 15.1508L12.094 17.6862L12.7435 17.3112L13.3931 16.9362L11.9293 14.4008L11.2797 14.7758ZM17.9818 14.2869L18.6313 13.9119L17.1675 11.3765L16.518 11.7515L15.8685 12.1265L17.3323 14.6619L17.9818 14.2869ZM14.313 17.1768L15.0227 17.4194L15.2259 16.825L14.5162 16.5824L13.8066 16.3398L13.6034 16.9342L14.313 17.1768ZM16.4643 15.4577L16.3195 16.1936L16.9359 16.3148L17.0806 15.5789L17.2254 14.843L16.609 14.7218L16.4643 15.4577ZM14.5162 16.5824L15.2259 16.825C15.3475 16.4693 15.4172 16.2696 15.4838 16.1335C15.5413 16.0159 15.5542 16.0374 15.5138 16.0608L15.1388 15.4112L14.7638 14.7617C14.4465 14.9449 14.2634 15.2148 14.1364 15.4744C14.0186 15.7152 13.9155 16.0212 13.8066 16.3398L14.5162 16.5824ZM16.4643 15.4577L16.609 14.7218C16.2786 14.6568 15.9621 14.5931 15.6946 14.5747C15.4064 14.5549 15.081 14.5785 14.7638 14.7617L15.1388 15.4112L15.5138 16.0608C15.4733 16.0841 15.4612 16.0622 15.5917 16.0712C15.7429 16.0816 15.9508 16.121 16.3195 16.1936L16.4643 15.4577ZM17.9818 14.2869L17.3323 14.6619C17.437 14.8432 17.5221 14.9908 17.5916 15.1185C17.6619 15.2476 17.7053 15.3366 17.7307 15.4C17.758 15.4677 17.7483 15.4665 17.7463 15.4228C17.7434 15.3592 17.7594 15.2559 17.8272 15.1586L18.4424 15.5877L19.0575 16.0167C19.3693 15.5697 19.2234 15.0915 19.1224 14.8402C19.0143 14.5715 18.8253 14.2479 18.6313 13.9119L17.9818 14.2869ZM17.0806 15.5789L16.9359 16.3148C17.3117 16.3887 17.6773 16.4626 17.9654 16.477C18.237 16.4905 18.7416 16.4697 19.0575 16.0167L18.4424 15.5877L17.8272 15.1586C17.8955 15.0607 17.9893 15.0078 18.0559 14.9874C18.102 14.9733 18.1104 14.9823 18.0399 14.9788C17.9742 14.9755 17.8783 14.9638 17.7352 14.9395C17.5938 14.9154 17.4287 14.883 17.2254 14.843L17.0806 15.5789ZM12.7435 17.3112L12.094 17.6862C12.288 18.0222 12.4738 18.3476 12.6525 18.5756C12.8195 18.7888 13.1608 19.1542 13.7038 19.1077L13.6398 18.3605L13.5758 17.6132C13.6939 17.6031 13.7914 17.6409 13.845 17.6752C13.8819 17.6988 13.8781 17.7078 13.833 17.6503C13.7909 17.5966 13.7355 17.5145 13.6588 17.3891C13.583 17.265 13.4977 17.1175 13.3931 16.9362L12.7435 17.3112ZM14.313 17.1768L13.6034 16.9342C13.5363 17.1303 13.4819 17.2895 13.432 17.424C13.3816 17.56 13.3437 17.6489 13.3137 17.7075C13.2815 17.7703 13.2779 17.7585 13.3132 17.7256C13.3641 17.6782 13.4568 17.6234 13.5758 17.6132L13.6398 18.3605L13.7038 19.1077C14.254 19.0606 14.5243 18.634 14.6484 18.392C14.78 18.1354 14.8988 17.7818 15.0227 17.4194L14.313 17.1768ZM11.2797 14.7758L11.9293 14.4008C11.7473 14.0857 11.6157 13.8575 11.517 13.6701L10.8535 14.0197L10.1899 14.3694C10.3053 14.5882 10.4537 14.8451 10.6302 15.1508L11.2797 14.7758ZM3.76197 10.3727L4.43399 10.0397C4.04271 9.25009 3.82241 8.36018 3.82241 7.41667H3.07241H2.32241C2.32241 8.59633 2.59837 9.71368 3.08994 10.7057L3.76197 10.3727ZM9.73907 14.0833V13.3333C9.34405 13.3333 8.95879 13.2947 8.58661 13.2213L8.44145 13.9571L8.29629 14.6929C8.76357 14.7851 9.24606 14.8333 9.73907 14.8333V14.0833ZM8.44145 13.9571L8.58661 13.2213C6.76295 12.8615 5.23768 11.6617 4.43399 10.0397L3.76197 10.3727L3.08994 10.7057C4.09613 12.7363 6.00546 14.241 8.29629 14.6929L8.44145 13.9571ZM8.38914 14.0266L8.98833 14.4777L9.04063 14.4082L8.44145 13.9571L7.84227 13.506L7.78996 13.5755L8.38914 14.0266ZM10.8535 13.9906L10.729 13.251C10.4076 13.3051 10.0769 13.3333 9.73907 13.3333V14.0833V14.8333C10.1607 14.8333 10.5746 14.7981 10.9779 14.7302L10.8535 13.9906ZM10.8535 14.0197H11.6035V13.9906H10.8535H10.1035V14.0197H10.8535ZM16.4057 7.41667H15.6557C15.6557 8.39517 15.4188 9.31613 14.9998 10.1274L15.6662 10.4716L16.3326 10.8157C16.8589 9.79665 17.1557 8.64023 17.1557 7.41667H16.4057ZM15.6662 10.4716L14.9998 10.1274C14.1605 11.7525 12.591 12.9377 10.729 13.251L10.8535 13.9906L10.9779 14.7302C13.3172 14.3366 15.282 12.8498 16.3326 10.8157L15.6662 10.4716ZM16.518 11.7515L17.1675 11.3765C16.7956 10.7324 16.5292 10.255 16.1812 9.92632L15.6662 10.4716L15.1512 11.0168C15.2995 11.1569 15.4424 11.3885 15.8685 12.1265L16.518 11.7515ZM3.47363 10.5823L4.03723 11.0771C4.03165 11.0835 4.03077 11.0827 4.04004 11.0762C4.04972 11.0693 4.0669 11.0587 4.09525 11.0446L3.76197 10.3727L3.42868 9.70086C3.27398 9.77759 3.07793 9.89623 2.91002 10.0875L3.47363 10.5823Z" fill="black"/>
</svg>
