<svg width="757" height="1005" viewBox="0 0 757 1005" fill="none" xmlns="http://www.w3.org/2000/svg">
<g opacity="0.3">
<path d="M-18.5903 401.442L74.6894 158.772L-61.0539 366.584L-539.056 726.874L-18.5903 401.442Z" fill="url(#paint0_linear_1203_8778)"/>
<path d="M102.931 527.92L-247.21 621.935L35.5792 462.915L290.497 -224.814L102.931 527.92Z" fill="url(#paint1_linear_1203_8778)"/>
<path d="M370.04 394.666L533.24 597.656L421.572 375.698L349.993 -218.167L370.04 394.666Z" fill="url(#paint2_linear_1203_8778)"/>
<path d="M199.427 435.441L294.096 86.2866L289.577 410.268L756.833 977.414L199.427 435.441Z" fill="url(#paint3_linear_1203_8778)"/>
<path d="M174.737 732.719L-81.4575 780.338L167.279 787.019L725.978 1004.76L174.737 732.719Z" fill="url(#paint4_linear_1203_8778)"/>
<path d="M218.899 563.354L483.085 811.676L198.772 654.559L-522.329 797.531L218.899 563.354Z" fill="url(#paint5_linear_1203_8778)"/>
</g>
<defs>
<linearGradient id="paint0_linear_1203_8778" x1="58.6847" y1="44.0217" x2="343.56" y2="811.39" gradientUnits="userSpaceOnUse">
<stop stop-color="#D5D5D5" stop-opacity="0.5"/>
<stop offset="1" stop-color="#6E6E6E" stop-opacity="0"/>
</linearGradient>
<linearGradient id="paint1_linear_1203_8778" x1="58.6847" y1="44.0217" x2="343.56" y2="811.39" gradientUnits="userSpaceOnUse">
<stop stop-color="#D5D5D5" stop-opacity="0.5"/>
<stop offset="1" stop-color="#6E6E6E" stop-opacity="0"/>
</linearGradient>
<linearGradient id="paint2_linear_1203_8778" x1="58.6847" y1="44.0217" x2="343.56" y2="811.39" gradientUnits="userSpaceOnUse">
<stop stop-color="#D5D5D5" stop-opacity="0.5"/>
<stop offset="1" stop-color="#6E6E6E" stop-opacity="0"/>
</linearGradient>
<linearGradient id="paint3_linear_1203_8778" x1="58.6847" y1="44.0217" x2="343.56" y2="811.39" gradientUnits="userSpaceOnUse">
<stop stop-color="#D5D5D5" stop-opacity="0.5"/>
<stop offset="1" stop-color="#6E6E6E" stop-opacity="0"/>
</linearGradient>
<linearGradient id="paint4_linear_1203_8778" x1="58.6847" y1="44.0217" x2="343.56" y2="811.39" gradientUnits="userSpaceOnUse">
<stop stop-color="#D5D5D5" stop-opacity="0.5"/>
<stop offset="1" stop-color="#6E6E6E" stop-opacity="0"/>
</linearGradient>
<linearGradient id="paint5_linear_1203_8778" x1="58.6847" y1="44.0217" x2="343.56" y2="811.39" gradientUnits="userSpaceOnUse">
<stop stop-color="#D5D5D5" stop-opacity="0.5"/>
<stop offset="1" stop-color="#6E6E6E" stop-opacity="0"/>
</linearGradient>
</defs>
</svg>
