<svg width="937" height="1033" viewBox="0 0 937 1033" fill="none" xmlns="http://www.w3.org/2000/svg">
<g opacity="0.3">
<path d="M339.643 238.479L552.27 204.902L347.058 193.599L-109.183 -3.02469e-05L339.643 238.479Z" fill="url(#paint0_linear_1203_8780)"/>
<path d="M299.259 377.978L86.8877 165.827L317.989 302.771L916.668 200.846L299.259 377.978Z" fill="url(#paint1_linear_1203_8780)"/>
<path d="M505.393 514.345L427.4 715.407L540.328 543.445L936.533 246.26L505.393 514.345Z" fill="url(#paint2_linear_1203_8780)"/>
<path d="M405.522 408.886L695.08 332.221L460.894 463.107L247.657 1032.96L405.522 408.886Z" fill="url(#paint3_linear_1203_8780)"/>
<path d="M182.133 514.254L41.9239 350.26L140.109 531.386L215.274 1022.15L182.133 514.254Z" fill="url(#paint4_linear_1203_8780)"/>
<path d="M321.861 475.805L253.171 768.046L248.129 499.131L-152.923 41.246L321.861 475.805Z" fill="url(#paint5_linear_1203_8780)"/>
</g>
<defs>
<linearGradient id="paint0_linear_1203_8780" x1="322.307" y1="-115.617" x2="604.45" y2="937.353" gradientUnits="userSpaceOnUse">
<stop stop-color="#D5D5D5"/>
<stop offset="1" stop-color="#6E6E6E" stop-opacity="0"/>
</linearGradient>
<linearGradient id="paint1_linear_1203_8780" x1="322.307" y1="-115.617" x2="604.45" y2="937.353" gradientUnits="userSpaceOnUse">
<stop stop-color="#D5D5D5"/>
<stop offset="1" stop-color="#6E6E6E" stop-opacity="0"/>
</linearGradient>
<linearGradient id="paint2_linear_1203_8780" x1="322.307" y1="-115.617" x2="604.45" y2="937.353" gradientUnits="userSpaceOnUse">
<stop stop-color="#D5D5D5"/>
<stop offset="1" stop-color="#6E6E6E" stop-opacity="0"/>
</linearGradient>
<linearGradient id="paint3_linear_1203_8780" x1="322.307" y1="-115.617" x2="604.45" y2="937.353" gradientUnits="userSpaceOnUse">
<stop stop-color="#D5D5D5"/>
<stop offset="1" stop-color="#6E6E6E" stop-opacity="0"/>
</linearGradient>
<linearGradient id="paint4_linear_1203_8780" x1="322.307" y1="-115.617" x2="604.45" y2="937.353" gradientUnits="userSpaceOnUse">
<stop stop-color="#D5D5D5"/>
<stop offset="1" stop-color="#6E6E6E" stop-opacity="0"/>
</linearGradient>
<linearGradient id="paint5_linear_1203_8780" x1="322.307" y1="-115.617" x2="604.45" y2="937.353" gradientUnits="userSpaceOnUse">
<stop stop-color="#D5D5D5"/>
<stop offset="1" stop-color="#6E6E6E" stop-opacity="0"/>
</linearGradient>
</defs>
</svg>
