<svg width="110" height="80" viewBox="0 0 110 80" fill="none" xmlns="http://www.w3.org/2000/svg">
<circle cx="55" cy="40" r="40" fill="url(#paint0_linear_41_2421)" fill-opacity="0.08"/>
<g clip-path="url(#clip0_41_2421)">
<path d="M78.5855 21.9141H32.5613C31.9404 21.9144 31.3451 22.1571 30.906 22.5887C30.4669 23.0203 30.2201 23.6056 30.2197 24.216V65.7278C30.2201 66.3382 30.4669 66.9235 30.906 67.3551C31.3451 67.7867 31.9404 68.0294 32.5613 68.0298H78.5855C79.2064 68.0295 79.8019 67.7868 80.241 67.3552C80.6801 66.9236 80.9269 66.3383 80.9273 65.7278V24.216C80.9269 23.6056 80.6801 23.0202 80.241 22.5886C79.8019 22.157 79.2064 21.9144 78.5855 21.9141Z" fill="#353535"/>
<path d="M75.5557 53.604H35.5917C34.2985 53.604 33.25 52.5733 33.25 51.3021V14.6242C33.25 13.353 34.2985 12.3223 35.5917 12.3223H75.5557C76.8489 12.3223 77.8973 13.353 77.8973 14.6242V51.3021C77.8973 52.5733 76.8489 53.604 75.5557 53.604Z" fill="#29292B"/>
<path d="M33.9914 52.0306V15.353C33.9914 14.0818 35.0399 13.0511 36.333 13.0511H76.2971C76.7538 13.0511 77.1784 13.1816 77.5385 13.4038C77.1245 12.7549 76.3923 12.3223 75.5557 12.3223H35.5917C34.2985 12.3223 33.25 13.353 33.25 14.6242V51.3021C33.25 52.1248 33.6901 52.8443 34.3502 53.2515C34.1242 52.8973 33.9914 52.4799 33.9914 52.0309V52.0306Z" fill="url(#paint1_linear_41_2421)"/>
<path d="M70.6385 20.0723H40.5091V21.7602H70.6385V20.0723ZM70.6385 26.5174H40.5091V28.2053H70.6385V26.5174ZM70.6385 32.964H40.5091V34.6519H70.6385V32.964ZM70.6385 39.4091H40.5091V41.0973H70.6385V39.4091Z" fill="#494949"/>
<path d="M44.0995 33.9609L51.6706 41.404H44.0995V33.9609Z" fill="url(#paint2_linear_41_2421)"/>
<path d="M80.9275 42.018V24.893L77.8974 21.9141V42.0177H80.9275V42.018Z" fill="#353535"/>
<path d="M84.4766 43.5664C84.4766 43.5664 84.4765 43.5665 84.4765 43.5666L81.2119 66.2844C81.0487 67.4201 80.06 68.2642 78.8933 68.2642H32.2538C31.0871 68.2642 30.0983 67.4201 29.9351 66.2844L25.5234 35.5869C25.3244 34.2011 26.4183 32.9629 27.8421 32.9629H42.2453C43.412 32.9629 44.4008 33.807 44.564 34.9425L45.1421 38.9626C45.3054 40.0983 46.2941 40.9424 47.4608 40.9424H82.1584C83.5816 40.9424 84.6757 42.1805 84.4768 43.5663C84.4768 43.5664 84.4767 43.5664 84.4766 43.5664Z" fill="url(#paint3_linear_41_2421)"/>
<path d="M72.9097 58.1315H38.2378C38.0478 58.1314 37.8643 58.0632 37.7217 57.9397C37.5791 57.8161 37.4873 57.6457 37.4633 57.4604L37.0295 54.084C37.0157 53.976 37.0255 53.8664 37.0581 53.7624C37.0907 53.6583 37.1454 53.5623 37.2187 53.4807C37.2919 53.399 37.382 53.3336 37.4829 53.2888C37.5838 53.244 37.6933 53.2208 37.804 53.2207H73.3435C73.4543 53.2208 73.5637 53.244 73.6646 53.2888C73.7655 53.3336 73.8556 53.399 73.9289 53.4807C74.0021 53.5623 74.0568 53.6583 74.0895 53.7624C74.1221 53.8664 74.1318 53.976 74.118 54.084L73.6842 57.4604C73.6603 57.6457 73.5684 57.8161 73.4258 57.9397C73.2833 58.0632 73.0998 58.1314 72.9097 58.1315Z" fill="#D5D5D5" fill-opacity="0.16"/>
</g>
<circle cx="13" cy="10" r="4" fill="#29292B"/>
<circle cx="99" cy="63" r="3" fill="#29292B"/>
<circle cx="12.5" cy="69" r="5" fill="#29292B"/>
<circle cx="105" cy="19" r="5" fill="#29292B"/>
<circle cx="95.5" cy="5.5" r="3.5" fill="#29292B"/>
<rect x="42.9975" y="46" width="24" height="24" rx="12" fill="#29292B"/>
<g clip-path="url(#clip1_41_2421)">
<path d="M57.3333 60.3339L55 58.0005M55 58.0005L52.6667 60.3339M55 58.0005V63.2505M59.8942 61.728C60.4631 61.4178 60.9126 60.927 61.1716 60.3331C61.4306 59.7391 61.4845 59.0757 61.3246 58.4478C61.1648 57.8198 60.8004 57.2629 60.2889 56.865C59.7774 56.4672 59.148 56.2509 58.5 56.2505H57.765C57.5884 55.5676 57.2594 54.9335 56.8025 54.3961C56.3456 53.8586 55.7728 53.4318 55.1272 53.1475C54.4816 52.8633 53.78 52.7291 53.0751 52.7551C52.3702 52.7811 51.6803 52.9665 51.0574 53.2975C50.4344 53.6285 49.8946 54.0963 49.4785 54.6659C49.0625 55.2356 48.7809 55.8921 48.6551 56.5862C48.5292 57.2803 48.5624 57.9938 48.752 58.6733C48.9417 59.3527 49.2829 59.9803 49.75 60.5089" stroke="#CFD4DC" stroke-linecap="round" stroke-linejoin="round"/>
</g>
<defs>
<linearGradient id="paint0_linear_41_2421" x1="55" y1="0" x2="55" y2="80" gradientUnits="userSpaceOnUse">
<stop stop-color="#EAECF0"/>
<stop offset="1" stop-color="#EAECF0" stop-opacity="0"/>
</linearGradient>
<linearGradient id="paint1_linear_41_2421" x1="56.9468" y1="34.3104" x2="27.8393" y2="4.70088" gradientUnits="userSpaceOnUse">
<stop stop-color="#373737"/>
</linearGradient>
<linearGradient id="paint2_linear_41_2421" x1="49.1017" y1="42.5982" x2="40.1066" y2="33.4482" gradientUnits="userSpaceOnUse">
<stop stop-color="#C2CECE" stop-opacity="0"/>
<stop offset="0.179" stop-color="#AFBCBC" stop-opacity="0.179"/>
<stop offset="1" stop-color="#5B6A6A"/>
</linearGradient>
<linearGradient id="paint3_linear_41_2421" x1="27.5547" y1="67.8463" x2="26.5747" y2="35.5344" gradientUnits="userSpaceOnUse">
<stop stop-color="#373737"/>
<stop offset="1" stop-color="#252525"/>
</linearGradient>
<clipPath id="clip0_41_2421">
<rect width="59" height="58" fill="white" transform="translate(25.5 11.293)"/>
</clipPath>
<clipPath id="clip1_41_2421">
<rect width="14" height="14" fill="white" transform="translate(48 51)"/>
</clipPath>
</defs>
</svg>
