<svg width="70" height="52" viewBox="0 0 70 52" fill="none" xmlns="http://www.w3.org/2000/svg">
<circle cx="35.0001" cy="25" r="25" fill="#2A2A2C"/>
<circle cx="8.75006" cy="6.25" r="2.5" fill="#2A2A2C"/>
<circle cx="62.5" cy="39.375" r="1.875" fill="#2A2A2C"/>
<circle cx="8.43756" cy="43.125" r="3.125" fill="#2A2A2C"/>
<circle cx="66.25" cy="11.875" r="3.125" fill="#2A2A2C"/>
<circle cx="60.3125" cy="3.4375" r="2.1875" fill="#2A2A2C"/>
<g filter="url(#filter0_dd_53_3649)">
<path d="M50 32L50 18C50 15.7909 48.2091 14 46 14L26.6895 14C25.6207 14 24.5964 14.4277 23.8449 15.1878L21.1555 17.9082C20.4152 18.657 20 19.6675 20 20.7204L20 32C20 34.2091 21.7909 36 24 36L46 36C48.2091 36 50 34.2091 50 32Z" fill="url(#paint0_linear_53_3649)"/>
<path d="M20 19.0762L25.0192 13.9992L25.0192 19.0762L20 19.0762Z" fill="#D0D5DD"/>
</g>
<defs>
<filter id="filter0_dd_53_3649" x="0" y="14" width="70" height="62" filterUnits="userSpaceOnUse" color-interpolation-filters="sRGB">
<feFlood flood-opacity="0" result="BackgroundImageFix"/>
<feColorMatrix in="SourceAlpha" type="matrix" values="0 0 0 0 0 0 0 0 0 0 0 0 0 0 0 0 0 0 127 0" result="hardAlpha"/>
<feMorphology radius="4" operator="erode" in="SourceAlpha" result="effect1_dropShadow_53_3649"/>
<feOffset dy="8"/>
<feGaussianBlur stdDeviation="4"/>
<feColorMatrix type="matrix" values="0 0 0 0 0.0627451 0 0 0 0 0.0941176 0 0 0 0 0.156863 0 0 0 0.03 0"/>
<feBlend mode="normal" in2="BackgroundImageFix" result="effect1_dropShadow_53_3649"/>
<feColorMatrix in="SourceAlpha" type="matrix" values="0 0 0 0 0 0 0 0 0 0 0 0 0 0 0 0 0 0 127 0" result="hardAlpha"/>
<feMorphology radius="4" operator="erode" in="SourceAlpha" result="effect2_dropShadow_53_3649"/>
<feOffset dy="20"/>
<feGaussianBlur stdDeviation="12"/>
<feColorMatrix type="matrix" values="0 0 0 0 0.0627451 0 0 0 0 0.0941176 0 0 0 0 0.156863 0 0 0 0.08 0"/>
<feBlend mode="normal" in2="effect1_dropShadow_53_3649" result="effect2_dropShadow_53_3649"/>
<feBlend mode="normal" in="SourceGraphic" in2="effect2_dropShadow_53_3649" result="shape"/>
</filter>
<linearGradient id="paint0_linear_53_3649" x1="49.6449" y1="35.2338" x2="22.2908" y2="37.1247" gradientUnits="userSpaceOnUse">
<stop stop-color="#373737"/>
<stop offset="1" stop-color="#252525"/>
</linearGradient>
</defs>
</svg>
