<svg width="110" height="80" viewBox="0 0 110 80" fill="none" xmlns="http://www.w3.org/2000/svg">
<circle cx="55" cy="40" r="40" fill="url(#paint0_linear_17_1638)"/>
<g clip-path="url(#clip0_17_1638)">
<path d="M78.5855 21.9122H32.5613C31.9404 21.9126 31.3451 22.1553 30.906 22.5869C30.4669 23.0185 30.2201 23.6038 30.2197 24.2142V65.726C30.2201 66.3364 30.4669 66.9217 30.906 67.3533C31.3451 67.7849 31.9404 68.0276 32.5613 68.0279H78.5855C79.2064 68.0276 79.8019 67.785 80.241 67.3534C80.6801 66.9218 80.9269 66.3364 80.9273 65.726V24.2142C80.9269 23.6037 80.6801 23.0184 80.241 22.5868C79.8019 22.1552 79.2064 21.9125 78.5855 21.9122Z" fill="#D5D7DA"/>
<path d="M75.5557 53.6029H35.5917C34.2985 53.6029 33.25 52.5722 33.25 51.301V14.6231C33.25 13.3519 34.2985 12.3212 35.5917 12.3212H75.5557C76.8489 12.3212 77.8973 13.3519 77.8973 14.6231V51.301C77.8973 52.5722 76.8489 53.6029 75.5557 53.6029Z" fill="#F2F4F7"/>
<path d="M33.9914 52.0295V15.3519C33.9914 14.0807 35.0399 13.05 36.333 13.05H76.2971C76.7538 13.05 77.1784 13.1805 77.5385 13.4027C77.1245 12.7538 76.3923 12.3212 75.5557 12.3212H35.5917C34.2985 12.3212 33.25 13.3519 33.25 14.6231V51.301C33.25 52.1237 33.6901 52.8432 34.3502 53.2504C34.1242 52.8962 33.9914 52.4788 33.9914 52.0298V52.0295Z" fill="url(#paint1_linear_17_1638)"/>
<path d="M70.6385 20.0706H40.5091V21.7585H70.6385V20.0706ZM70.6385 26.5157H40.5091V28.2036H70.6385V26.5157ZM70.6385 32.9622H40.5091V34.6502H70.6385V32.9622ZM70.6385 39.4074H40.5091V41.0956H70.6385V39.4074Z" fill="white"/>
<path d="M44.0995 33.9592L51.6706 41.4022H44.0995V33.9592Z" fill="url(#paint2_linear_17_1638)"/>
<path d="M80.9275 42.0161V24.8911L77.8974 21.9122V42.0159H80.9275V42.0161Z" fill="#C6C6C6"/>
<path d="M84.4767 43.5652C84.4766 43.5652 84.4765 43.5653 84.4765 43.5653L81.212 66.2831C81.0487 67.4189 80.06 68.263 78.8933 68.263H32.2538C31.0871 68.263 30.0984 67.4189 29.9352 66.2831L25.5235 35.5857C25.3245 34.1999 26.4184 32.9617 27.8421 32.9617H42.2454C43.4121 32.9617 44.4008 33.8058 44.564 34.9413L45.1422 38.9613C45.3054 40.0971 46.2941 40.9412 47.4608 40.9412H82.1584C83.5816 40.9412 84.6757 42.1793 84.4768 43.5651C84.4768 43.5652 84.4767 43.5652 84.4767 43.5652Z" fill="url(#paint3_linear_17_1638)"/>
<path d="M72.9097 58.1299H38.2378C38.0478 58.1298 37.8643 58.0616 37.7217 57.9381C37.5791 57.8145 37.4873 57.6442 37.4633 57.4588L37.0295 54.0825C37.0157 53.9745 37.0255 53.8648 37.0581 53.7608C37.0907 53.6567 37.1454 53.5607 37.2187 53.4791C37.2919 53.3974 37.382 53.332 37.4829 53.2872C37.5838 53.2424 37.6933 53.2192 37.804 53.2191H73.3435C73.4543 53.2192 73.5637 53.2424 73.6646 53.2872C73.7655 53.332 73.8556 53.3974 73.9289 53.4791C74.0021 53.5607 74.0568 53.6567 74.0895 53.7608C74.1221 53.8648 74.1318 53.9745 74.118 54.0825L73.6842 57.4588C73.6603 57.6442 73.5684 57.8145 73.4258 57.9381C73.2833 58.0616 73.0998 58.1298 72.9097 58.1299Z" fill="#D5D5D5"/>
</g>
<circle cx="13" cy="10" r="4" fill="#F2F4F7"/>
<circle cx="99" cy="63" r="3" fill="#F2F4F7"/>
<circle cx="12.5" cy="69" r="5" fill="#F2F4F7"/>
<circle cx="105" cy="19" r="5" fill="#F2F4F7"/>
<circle cx="95.5" cy="5.5" r="3.5" fill="#F2F4F7"/>
<rect x="42.9975" y="46" width="24" height="24" rx="12" fill="white"/>
<g clip-path="url(#clip1_17_1638)">
<path d="M57.3333 60.3334L55 58M55 58L52.6667 60.3334M55 58V63.25M59.8942 61.7275C60.4631 61.4174 60.9126 60.9265 61.1716 60.3326C61.4306 59.7386 61.4845 59.0752 61.3246 58.4473C61.1648 57.8193 60.8004 57.2624 60.2889 56.8645C59.7774 56.4667 59.148 56.2505 58.5 56.25H57.765C57.5884 55.5671 57.2594 54.9331 56.8025 54.3956C56.3456 53.8582 55.7728 53.4313 55.1272 53.1471C54.4816 52.8628 53.78 52.7287 53.0751 52.7546C52.3702 52.7806 51.6803 52.966 51.0574 53.297C50.4344 53.628 49.8946 54.0958 49.4785 54.6655C49.0625 55.2351 48.7809 55.8916 48.6551 56.5857C48.5292 57.2798 48.5624 57.9933 48.752 58.6728C48.9417 59.3522 49.2829 59.9798 49.75 60.5084" stroke="#CFD4DC" stroke-linecap="round" stroke-linejoin="round"/>
</g>
<defs>
<linearGradient id="paint0_linear_17_1638" x1="55" y1="0" x2="55" y2="80" gradientUnits="userSpaceOnUse">
<stop stop-color="#EAECF0"/>
<stop offset="1" stop-color="#EAECF0" stop-opacity="0"/>
</linearGradient>
<linearGradient id="paint1_linear_17_1638" x1="56.9468" y1="34.3093" x2="27.8393" y2="4.69978" gradientUnits="userSpaceOnUse">
<stop stop-color="white"/>
</linearGradient>
<linearGradient id="paint2_linear_17_1638" x1="49.1017" y1="42.5965" x2="40.1066" y2="33.4465" gradientUnits="userSpaceOnUse">
<stop stop-color="#C2CECE" stop-opacity="0"/>
<stop offset="0.179" stop-color="#AFBCBC" stop-opacity="0.179"/>
<stop offset="1" stop-color="#5B6A6A"/>
</linearGradient>
<linearGradient id="paint3_linear_17_1638" x1="27.5547" y1="67.8451" x2="26.5747" y2="35.5332" gradientUnits="userSpaceOnUse">
<stop stop-color="#F9FAFB"/>
<stop offset="1" stop-color="#E4E7EC"/>
</linearGradient>
<clipPath id="clip0_17_1638">
<rect width="59" height="58" fill="white" transform="translate(25.5 11.292)"/>
</clipPath>
<clipPath id="clip1_17_1638">
<rect width="14" height="14" fill="white" transform="translate(48 51)"/>
</clipPath>
</defs>
</svg>
