<svg width="71" height="20" viewBox="0 0 71 20" fill="none" xmlns="http://www.w3.org/2000/svg">
<g id="logo 1" clipPath="url(#clip0_1699_1148)">
<path id="Vector" d="M6.30103 0.766846H19.5962C20.1843 0.788145 20.6674 1.01178 21.0455 1.43777C21.4445 1.86375 21.6441 2.37494 21.6441 2.97132C21.539 4.24927 20.8564 4.9415 19.5962 5.04799H7.37221C6.57408 5.09059 5.91247 5.39943 5.38738 5.97451C4.8623 6.54959 4.47373 7.20987 4.22169 7.95534C3.99065 8.67952 3.87513 9.42499 3.87513 10.1918C3.87513 10.9586 3.99065 11.7147 4.22169 12.4602C4.47373 13.1843 4.8623 13.834 5.38738 14.409C5.91247 14.9841 6.57408 15.293 7.37221 15.3356H16.9498C17.3278 15.3143 17.5273 15.1013 17.5483 14.6966V12.8436C17.5273 12.4176 17.3278 12.2046 16.9498 12.2046H8.88446C8.29636 12.2046 7.79227 12.0022 7.37221 11.5975C6.97314 11.1716 6.77361 10.6604 6.77361 10.064C6.77361 9.46759 6.97314 8.95641 7.37221 8.53042C7.79227 8.12574 8.29636 7.92339 8.88446 7.92339H19.6592C20.2473 7.92339 20.7514 8.12574 21.1715 8.53042C21.5495 8.93511 21.7491 9.42499 21.7701 10.0001V17.54C21.7491 18.1151 21.5495 18.5943 21.1715 18.9777C20.7724 19.3824 20.2893 19.5954 19.7222 19.6167H6.30103C4.83079 19.5315 3.61259 18.9671 2.64644 17.9234C1.70128 16.8585 1.01866 15.6551 0.598598 14.3132C0.199533 12.9713 0 11.5975 0 10.1918C0 8.78601 0.210035 7.41221 0.630103 6.07036C1.05017 4.7285 1.73278 3.53575 2.67794 2.49208C3.62309 1.42712 4.83079 0.852043 6.30103 0.766846Z" fill="#0066CC"/>
<path id="Vector_2" d="M46.0612 2.90742C46.0612 3.5038 45.8512 4.00433 45.4311 4.40902C45.032 4.835 44.5385 5.04799 43.9503 5.04799H31.3482C30.9493 5.06929 30.6132 5.16514 30.3401 5.33553C30.0881 5.48463 29.8991 5.66567 29.773 5.87866C29.647 6.07036 29.584 6.2727 29.584 6.48569C29.584 6.69869 29.647 6.91168 29.773 7.12467C29.8991 7.31636 30.0881 7.49741 30.3401 7.6678C30.6132 7.8169 30.9493 7.90209 31.3482 7.92339H40.2957C41.766 7.96599 42.9737 8.31743 43.9188 8.97771C44.885 9.61668 45.5676 10.3622 45.9667 11.2142C46.3867 12.0448 46.5968 12.8968 46.5968 13.7701C46.5968 14.622 46.3867 15.474 45.9667 16.326C45.5466 17.1566 44.864 17.9021 43.9188 18.5624C42.9737 19.2014 41.766 19.5209 40.2957 19.5209H40.1067C39.9807 19.5422 39.8546 19.5528 39.7286 19.5528H27.8197C27.2316 19.5528 26.7275 19.3505 26.3074 18.9458C25.9084 18.5198 25.7089 18.0086 25.7089 17.4122C25.7089 16.8159 25.9189 16.3153 26.339 15.9106C26.7381 15.4847 27.2316 15.2717 27.8197 15.2717H40.4848C40.8838 15.293 41.2094 15.2184 41.4614 15.048C41.7345 14.8776 41.934 14.6859 42.0601 14.4729C42.1861 14.2387 42.2491 14.0044 42.2491 13.7701C42.2491 13.621 42.1861 13.4186 42.0601 13.163C41.934 12.8861 41.7345 12.6625 41.4614 12.4921C41.2094 12.3217 40.8838 12.2259 40.4848 12.2046H31.5373C30.0671 12.162 28.8488 11.8212 27.8828 11.1822C26.9376 10.5432 26.255 9.81903 25.8349 9.00965C25.4358 8.17898 25.2363 7.33766 25.2363 6.48569C25.2363 5.65502 25.4463 4.835 25.8664 4.02563C26.2864 3.19496 26.969 2.46013 27.9142 1.82116C28.8594 1.18218 30.0671 0.841394 31.5373 0.798795H31.7263C31.8523 0.777496 31.9784 0.766846 32.1044 0.766846H43.9503C44.5385 0.766846 45.032 0.979839 45.4311 1.40582C45.8512 1.81051 46.0612 2.31104 46.0612 2.90742Z" fill="#0066CC"/>
<path id="Vector_3" d="M57.2137 14.6645C57.2137 14.0682 57.4132 13.5676 57.8122 13.1629C58.2323 12.737 58.7364 12.524 59.3244 12.524H64.1447L63.3257 10.1597C62.9896 9.28648 62.6536 8.46645 62.3175 7.69968C62.0024 6.91161 61.6349 6.19808 61.2148 5.55911C60.8367 4.92013 60.4062 4.57934 59.9231 4.53674C59.419 4.57934 58.9675 4.92013 58.5684 5.55911C58.1693 6.19808 57.8018 6.91161 57.4657 7.69968C57.1507 8.46645 56.825 9.28648 56.489 10.1597L53.496 18.4665C53.286 18.9137 53.0129 19.2865 52.6769 19.5847C52.3618 19.8616 51.8788 20 51.2277 20C50.6186 20 50.1145 19.787 49.7154 19.361C49.3374 18.935 49.1694 18.4239 49.2114 17.8275C49.2324 17.5506 49.2954 17.295 49.4004 17.0607L52.8659 7.98722C53.8321 5.6017 54.7983 3.67412 55.7644 2.20447C56.7096 0.756124 58.0957 0.0212993 59.9231 0C61.7294 0.0212993 63.1051 0.756124 64.0503 2.20447C65.0164 3.63152 65.9826 5.55911 66.9488 7.98722L70.4143 17.0607C70.5194 17.295 70.5823 17.5506 70.6034 17.8275C70.6453 18.4239 70.4668 18.935 70.0677 19.361C69.6896 19.787 69.1961 20 68.587 20C67.8938 20 67.3793 19.8616 67.0432 19.5847C66.7282 19.2865 66.4657 18.9137 66.2556 18.4665L65.657 16.8051H59.3244C58.7364 16.8051 58.2428 16.5921 57.8437 16.1661C57.4237 15.7614 57.2137 15.2609 57.2137 14.6645Z" fill="#0066CC"/>
<path id="Vector_4" d="M46.0612 2.90718C46.0612 3.50356 45.8512 4.00409 45.4312 4.40877C45.0321 4.83476 44.5385 5.04775 43.9505 5.04775H31.3483C30.9493 5.06905 30.6132 5.1649 30.3401 5.33529C30.0881 5.48439 29.8992 5.66543 29.7731 5.87842C29.6471 6.07012 29.5841 6.27246 29.5841 6.48545C29.5841 6.69844 29.6471 6.91144 29.7731 7.12443C29.8992 7.31612 30.0881 7.49717 30.3401 7.66756C30.6132 7.81665 30.9493 7.90185 31.3483 7.92315H40.2958C41.766 7.96575 42.9737 8.31719 43.9189 8.97746C44.8851 9.61644 45.5677 10.3619 45.9668 11.2139C46.3868 12.0446 46.5969 12.8965 46.5969 13.7698C46.5969 14.6218 46.3868 15.4737 45.9668 16.3257C45.5467 17.1564 44.8641 17.9019 43.9189 18.5621C42.9737 19.2011 41.766 19.5206 40.2958 19.5206H40.1068C39.9808 19.5419 39.8547 19.5525 39.7287 19.5525H27.8197C27.2316 19.5525 26.7276 19.3502 26.3075 18.9455C25.9085 18.5195 25.709 18.0083 25.709 17.412C25.709 16.8156 25.9189 16.3151 26.339 15.9104C26.7381 15.4844 27.2316 15.2714 27.8197 15.2714H40.4849C40.8839 15.2927 41.2095 15.2181 41.4615 15.0478C41.7346 14.8774 41.9341 14.6857 42.0601 14.4727C42.1861 14.2384 42.2491 14.0041 42.2491 13.7698C42.2491 13.6207 42.1861 13.4184 42.0601 13.1628C41.9341 12.8859 41.7346 12.6622 41.4615 12.4918C41.2095 12.3214 40.8839 12.2256 40.4849 12.2043H31.5374C30.0671 12.1617 28.8489 11.8209 27.8828 11.1819C26.9377 10.543 26.255 9.81878 25.8349 9.00941C25.4359 8.17874 25.2363 7.33742 25.2363 6.48545C25.2363 5.65478 25.4464 4.83476 25.8665 4.02539C26.2865 3.19472 26.9691 2.45989 27.9143 1.82091C28.8594 1.18194 30.0671 0.841149 31.5374 0.79855H31.7264C31.8524 0.777251 31.9785 0.766602 32.1045 0.766602H43.9505C44.5385 0.766602 45.0321 0.979594 45.4312 1.40558C45.8512 1.81027 46.0612 2.3108 46.0612 2.90718Z" fill="#E24744"/>
</g>
<defs>
<clipPath id="clip0_1699_1148">
<rect width="71" height="20" fill="white"/>
</clipPath>
</defs>
</svg>
