<svg width="15" height="15" viewBox="0 0 15 15" fill="none" xmlns="http://www.w3.org/2000/svg">
<path d="M9.33333 5.16667C9.33333 6.36328 8.36328 7.33333 7.16667 7.33333V8.33333C8.91557 8.33333 10.3333 6.91557 10.3333 5.16667H9.33333ZM7.16667 7.33333C5.97005 7.33333 5 6.36328 5 5.16667H4C4 6.91557 5.41777 8.33333 7.16667 8.33333V7.33333ZM5 5.16667C5 3.97005 5.97005 3 7.16667 3V2C5.41777 2 4 3.41776 4 5.16667H5ZM7.16667 3C8.36328 3 9.33333 3.97005 9.33333 5.16667H10.3333C10.3333 3.41776 8.91557 2 7.16667 2V3ZM5.16667 10.3333H9.16667V9.33333H5.16667V10.3333ZM1 7.16667C1 3.76091 3.76091 1 7.16667 1V0C3.20863 0 0 3.20863 0 7.16667H1ZM7.16667 1C10.5724 1 13.3333 3.76091 13.3333 7.16667H14.3333C14.3333 3.20863 11.1247 0 7.16667 0V1ZM13.3333 7.16667C13.3333 8.91553 12.606 10.4937 11.4359 11.6165L12.1283 12.338C13.4867 11.0344 14.3333 9.19898 14.3333 7.16667H13.3333ZM11.4359 11.6165C10.3274 12.6803 8.82384 13.3333 7.16667 13.3333V14.3333C9.09212 14.3333 10.8411 13.5734 12.1283 12.338L11.4359 11.6165ZM9.16667 10.3333C10.2174 10.3333 11.0944 11.0817 11.2917 12.0748L12.2725 11.8798C11.984 10.4279 10.7037 9.33333 9.16667 9.33333V10.3333ZM7.16667 13.3333C5.5095 13.3333 4.0059 12.6803 2.89741 11.6165L2.205 12.338C3.49222 13.5734 5.24121 14.3333 7.16667 14.3333V13.3333ZM2.89741 11.6165C1.72736 10.4937 1 8.91553 1 7.16667H0C0 9.19898 0.846594 11.0344 2.205 12.338L2.89741 11.6165ZM5.16667 9.33333C3.62963 9.33333 2.34936 10.4279 2.0608 11.8798L3.04162 12.0748C3.23897 11.0817 4.11598 10.3333 5.16667 10.3333V9.33333Z" fill="black"/>
</svg>
