<svg width="52" height="65" viewBox="0 0 52 65" fill="none" xmlns="http://www.w3.org/2000/svg">
<path d="M10.3387 50.0698C10.3387 52.3548 8.48106 54.2167 6.17763 54.2167C3.8742 54.2167 2.0166 52.3654 2.0166 50.0698C2.0166 47.7847 3.8742 45.9229 6.17763 45.9229C8.48106 45.9229 10.3387 47.7847 10.3387 50.0698Z" fill="#E24744"/>
<path d="M5.07453 43.3837C6.36426 43.3837 7.4098 42.3417 7.4098 41.0564C7.4098 39.771 6.36426 38.729 5.07453 38.729C3.78479 38.729 2.73926 39.771 2.73926 41.0564C2.73926 42.3417 3.78479 43.3837 5.07453 43.3837Z" fill="#E24744"/>
<path d="M21.5904 58.1517C21.5904 61.3888 18.9579 64.0124 15.7097 64.0124C12.4616 64.0124 9.8291 61.3888 9.8291 58.1517C9.8291 54.9146 12.4616 52.291 15.7097 52.291C18.9579 52.291 21.5904 54.9146 21.5904 58.1517Z" fill="#E24744"/>
<path d="M14.5318 18.206C14.5318 15.318 16.3044 12.8002 20.6459 11.6577C23.1829 10.9912 25.0086 8.80142 25.0086 6.19901V5.82875C25.0086 2.11557 21.58 -0.61378 17.9285 0.116162C5.84879 2.53872 0 10.1238 0 18.9148C0 42.2941 36.7274 34.2013 36.7274 45.9862C36.7274 48.9906 34.5832 51.4131 29.5199 52.3335C26.6645 52.8518 24.5416 55.2427 24.5416 58.1307C24.5416 61.6852 27.7048 64.4674 31.2396 63.9491C44.6886 61.9708 51.238 54.0049 51.238 44.9071C51.2486 21.8029 14.5318 29.8005 14.5318 18.206Z" fill="#E24744"/>
<path d="M39.4873 13.9426C39.4873 11.6575 41.3449 9.79565 43.6483 9.79565C45.9411 9.79565 47.8094 11.647 47.8094 13.9426C47.8094 16.2382 45.9518 18.0895 43.6483 18.0895C41.3555 18.0895 39.4873 16.2382 39.4873 13.9426Z" fill="#E24744"/>
<path d="M44.763 25.2939C46.0527 25.2939 47.0983 24.2519 47.0983 22.9665C47.0983 21.6811 46.0527 20.6392 44.763 20.6392C43.4733 20.6392 42.4277 21.6811 42.4277 22.9665C42.4277 24.2519 43.4733 25.2939 44.763 25.2939Z" fill="#E24744"/>
<path d="M28.2354 5.86069C28.2354 2.62356 30.8785 0 34.1266 0C37.3748 0 40.0072 2.62356 40.0072 5.86069C40.0072 9.09783 37.3748 11.7214 34.1266 11.7214C30.8785 11.7214 28.2354 9.09783 28.2354 5.86069Z" fill="#E24744"/>
</svg>
