<svg width="24" height="24" viewBox="0 0 13 13" fill="currentColor" xmlns="http://www.w3.org/2000/svg">
<path d="M3.31188 12.459L3.23367 12.9528H3.23367L3.31188 12.459ZM0.541039 9.68811L1.03488 9.6099L0.541039 9.68811ZM12.459 9.68811L12.9528 9.76633L12.459 9.68811ZM9.68812 12.459L9.76633 12.9528H9.76633L9.68812 12.459ZM12.2334 5.53304C12.0675 5.31225 11.7541 5.2677 11.5333 5.43355C11.3125 5.59939 11.268 5.91283 11.4338 6.13362L12.2334 5.53304ZM1.56621 6.13362C1.73205 5.91283 1.68751 5.59939 1.46671 5.43355C1.24592 5.2677 0.932484 5.31225 0.76664 5.53304L1.56621 6.13362ZM6 9.83333C6 10.1095 6.22386 10.3333 6.5 10.3333C6.77614 10.3333 7 10.1095 7 9.83333H6ZM3.44155 2.85602C3.26998 3.0724 3.30631 3.38689 3.52269 3.55846C3.73907 3.73002 4.05356 3.69369 4.22512 3.47731L3.44155 2.85602ZM4.76523 1.99135L4.37344 1.68071L4.76523 1.99135ZM8.23477 1.99135L8.62656 1.68071L8.23477 1.99135ZM8.77488 3.47731C8.94644 3.69369 9.26093 3.73002 9.47731 3.55846C9.69369 3.38689 9.73002 3.0724 9.55846 2.85602L8.77488 3.47731ZM6.33289 0.51326L6.25422 0.0194875L6.25422 0.0194877L6.33289 0.51326ZM6.66711 0.51326L6.74578 0.0194878L6.74578 0.0194876L6.66711 0.51326ZM12 7.83333V8.5H13V7.83333H12ZM8.5 12H4.5V13H8.5V12ZM1 8.5V7.83333H0V8.5H1ZM4.5 12C3.86156 12 3.60055 11.9984 3.3901 11.9651L3.23367 12.9528C3.54144 13.0016 3.89977 13 4.5 13V12ZM0 8.5C0 9.10023 -0.00155175 9.45856 0.0471947 9.76633L1.03488 9.6099C1.00155 9.39945 1 9.13844 1 8.5H0ZM3.3901 11.9651C2.17774 11.7731 1.2269 10.8223 1.03488 9.6099L0.0471947 9.76633C0.306986 11.4066 1.59341 12.693 3.23367 12.9528L3.3901 11.9651ZM12 8.5C12 9.13844 11.9984 9.39945 11.9651 9.6099L12.9528 9.76633C13.0016 9.45856 13 9.10023 13 8.5H12ZM8.5 13C9.10023 13 9.45856 13.0016 9.76633 12.9528L9.6099 11.9651C9.39945 11.9984 9.13844 12 8.5 12V13ZM11.9651 9.6099C11.7731 10.8223 10.8223 11.7731 9.6099 11.9651L9.76633 12.9528C11.4066 12.693 12.693 11.4066 12.9528 9.76633L11.9651 9.6099ZM13 7.83333C13 6.97094 12.7146 6.17376 12.2334 5.53304L11.4338 6.13362C11.7894 6.60711 12 7.19491 12 7.83333H13ZM1 7.83333C1 7.19491 1.21055 6.60711 1.56621 6.13362L0.76664 5.53304C0.285376 6.17376 0 6.97094 0 7.83333H1ZM7 9.83333V1.16667H6V9.83333H7ZM4.22512 3.47731L5.15702 2.302L4.37344 1.68071L3.44155 2.85602L4.22512 3.47731ZM7.84298 2.302L8.77488 3.47731L9.55846 2.85602L8.62656 1.68071L7.84298 2.302ZM5.15702 2.302C5.53619 1.82379 5.79451 1.49923 6.01215 1.28075C6.22755 1.06452 6.34077 1.01831 6.41156 1.00703L6.25422 0.0194877C5.87211 0.0803688 5.57308 0.304564 5.30368 0.575012C5.0365 0.843223 4.73744 1.22163 4.37344 1.68071L5.15702 2.302ZM8.62656 1.68071C8.26256 1.22163 7.9635 0.843224 7.69633 0.575013C7.42692 0.304564 7.1279 0.080369 6.74578 0.0194878L6.58844 1.00703C6.65923 1.01831 6.77245 1.06452 6.98786 1.28075C7.20549 1.49923 7.46381 1.82379 7.84298 2.302L8.62656 1.68071ZM6.41156 1.00703C6.44112 1.00232 6.47063 1 6.5 1V0C6.41775 0 6.33563 0.00651744 6.25422 0.0194875L6.41156 1.00703ZM6.5 1C6.52937 1 6.55888 1.00232 6.58844 1.00703L6.74578 0.0194876C6.66438 0.0065175 6.58226 0 6.5 0V1ZM7 1.16667V0.5H6V1.16667H7Z" fill="currentColor"/>
</svg>
