<svg xmlns="http://www.w3.org/2000/svg" width="36" height="36" fill="none"><path stroke="#E24744" stroke-width="2" d="M17.454 6.712c.141-.57.952-.57 1.093 0l1.149 4.657a6.75 6.75 0 0 0 4.935 4.935l4.657 1.15c.57.14.57.951 0 1.092l-4.657 1.15a6.75 6.75 0 0 0-4.935 4.935l-1.15 4.657c-.14.57-.951.57-1.092 0l-1.15-4.657a6.75 6.75 0 0 0-4.935-4.935l-4.656-1.15c-.57-.14-.57-.951 0-1.092l4.656-1.15a6.75 6.75 0 0 0 4.936-4.935zM8.727 5.606c.07-.285.476-.285.546 0l.089.359a3.66 3.66 0 0 0 2.673 2.673l.36.089c.284.07.284.476 0 .546l-.36.089a3.66 3.66 0 0 0-2.673 2.673l-.089.359c-.07.285-.475.285-.546 0l-.088-.36a3.66 3.66 0 0 0-2.674-2.672l-.359-.09c-.285-.07-.285-.475 0-.545l.36-.089a3.66 3.66 0 0 0 2.673-2.673z"></path></svg>